<svg width="25" height="24" viewBox="0 0 25 24" fill="none" xmlns="http://www.w3.org/2000/svg">
<path d="M8.375 2.5C8.375 2.08579 8.03921 1.75 7.625 1.75C7.21079 1.75 6.875 2.08579 6.875 2.5V4.07926C5.43567 4.19451 4.49077 4.47737 3.79657 5.17157C3.10237 5.86577 2.81951 6.81067 2.70426 8.25H22.5457C22.4305 6.81067 22.1476 5.86577 21.4534 5.17157C20.7592 4.47737 19.8143 4.19451 18.375 4.07926V2.5C18.375 2.08579 18.0392 1.75 17.625 1.75C17.2108 1.75 16.875 2.08579 16.875 2.5V4.0129C16.2097 4 15.464 4 14.625 4H10.625C9.78597 4 9.04027 4 8.375 4.0129V2.5Z" fill="#94A3B8"/>
<path fill-rule="evenodd" clip-rule="evenodd" d="M22.625 12V14C22.625 17.7712 22.625 19.6569 21.4534 20.8284C20.2819 22 18.3962 22 14.625 22H10.625C6.85376 22 4.96815 22 3.79657 20.8284C2.625 19.6569 2.625 17.7712 2.625 14V12C2.625 11.161 2.625 10.4153 2.6379 9.75H22.6121C22.625 10.4153 22.625 11.161 22.625 12ZM17.125 18C17.9534 18 18.625 17.3284 18.625 16.5C18.625 15.6716 17.9534 15 17.125 15C16.2966 15 15.625 15.6716 15.625 16.5C15.625 17.3284 16.2966 18 17.125 18Z" fill="#94A3B8"/>
</svg>
