<svg width="25" height="24" viewBox="0 0 25 24" fill="none" xmlns="http://www.w3.org/2000/svg">
<path d="M12.375 22C17.8978 22 22.375 17.5228 22.375 12C22.375 11.094 22.2545 10.2162 22.0287 9.38161C21.9434 9.06633 21.5737 8.94083 21.2778 9.0791C20.6998 9.34916 20.055 9.5 19.375 9.5C16.8897 9.5 14.875 7.48528 14.875 5C14.875 4.31996 15.0258 3.67516 15.2959 3.09722C15.4342 2.80131 15.3087 2.4316 14.9934 2.3463C14.1588 2.12048 13.281 2 12.375 2C6.85215 2 2.375 6.47715 2.375 12C2.375 13.5997 2.75062 15.1116 3.41846 16.4525C3.59594 16.8088 3.65501 17.2161 3.55212 17.6006L2.95651 19.8267C2.69795 20.793 3.58201 21.677 4.54835 21.4185L6.77439 20.8229C7.15893 20.72 7.56621 20.7791 7.92253 20.9565C9.26337 21.6244 10.7753 22 12.375 22Z" fill="#94A3B8"/>
<circle cx="19.375" cy="5" r="3" fill="#94A3B8"/>
</svg>
