<svg width="18" height="26" viewBox="0 0 18 26" fill="none" xmlns="http://www.w3.org/2000/svg">
<g clip-path="url(#clip0_1_752)">
<path d="M4.96301 18.9753C5.70932 19.9194 6.38856 20.9139 6.99581 21.9515C7.5143 22.9274 7.73044 23.5892 8.10935 24.7651C8.34173 25.4147 8.55176 25.6086 9.0033 25.6086C9.49535 25.6086 9.71859 25.2788 9.89107 24.7686C10.2492 23.6581 10.5303 22.8107 10.9737 22.0099C11.8437 20.4639 12.9248 19.0901 13.9871 17.7698C14.2747 17.3961 16.134 15.219 16.9711 13.5013C16.9711 13.5013 17.9999 11.6143 17.9999 8.979C17.9999 6.51392 16.9853 4.80425 16.9853 4.80425L14.0642 5.5808L12.2902 10.2189L11.8513 10.8584L11.7636 10.9743L11.6468 11.1193L11.442 11.351L11.1492 11.6415L9.56946 12.9191L5.62001 15.1827L4.96301 18.9753Z" fill="#34A853"/>
<path d="M0.88678 13.184C1.85069 15.3696 3.70948 17.2908 4.96708 18.9768L11.6468 11.1223C11.6468 11.1223 10.7058 12.344 8.99873 12.344C7.09727 12.344 5.56116 10.8368 5.56116 8.93621C5.56116 7.6329 6.35105 6.73755 6.35105 6.73755L1.81666 7.94363L0.88678 13.184Z" fill="#FBBC04"/>
<path d="M11.7214 0.403913C13.9399 1.11395 15.8388 2.6046 16.9874 4.80271L11.6489 11.1178C11.6489 11.1178 12.4388 10.2062 12.4388 8.91101C12.4388 6.9662 10.789 5.51331 9.00682 5.51331C7.3215 5.51331 6.35358 6.73301 6.35358 6.73301V2.7546L11.7214 0.403843V0.403913Z" fill="#4285F4"/>
<path d="M2.11043 3.19425C3.43547 1.62054 5.76703 0 8.98143 0C10.541 0 11.7159 0.406426 11.7159 0.406426L6.34851 6.7365H2.54566L2.11043 3.19425Z" fill="#1A73E8"/>
<path d="M0.886781 13.184C0.886781 13.184 0 11.4602 0 8.96287C0 6.60256 0.924328 4.53937 2.11043 3.19425L6.35154 6.73706L0.886781 13.184Z" fill="#EA4335"/>
</g>
<defs>
<clipPath id="clip0_1_752">
<rect width="18" height="25.6154" fill="white"/>
</clipPath>
</defs>
</svg>
