<svg width="16" height="16" viewBox="0 0 16 16" fill="none" xmlns="http://www.w3.org/2000/svg">
<path fill-rule="evenodd" clip-rule="evenodd" d="M8 1.33334C5.05449 1.33334 2.66667 4.00172 2.66667 7C2.66667 9.97479 4.36889 13.2083 7.02472 14.4496C7.64383 14.739 8.35618 14.739 8.97529 14.4496C11.6311 13.2083 13.3333 9.97479 13.3333 7C13.3333 4.00172 10.9455 1.33334 8 1.33334ZM8 8C8.73638 8 9.33334 7.40305 9.33334 6.66667C9.33334 5.93029 8.73638 5.33334 8 5.33334C7.26363 5.33334 6.66667 5.93029 6.66667 6.66667C6.66667 7.40305 7.26363 8 8 8Z" fill="#363062"/>
</svg>
