<svg width="25" height="24" viewBox="0 0 25 24" fill="none" xmlns="http://www.w3.org/2000/svg">
<path d="M9.5 15L15.5 9M15.5 9H11M15.5 9V13.5" stroke="#363062" stroke-width="1.5" stroke-linecap="round" stroke-linejoin="round"/>
<path d="M2.5 12C2.5 7.28595 2.5 4.92893 3.96447 3.46447C5.42893 2 7.78595 2 12.5 2C17.214 2 19.5711 2 21.0355 3.46447C22.5 4.92893 22.5 7.28595 22.5 12C22.5 16.714 22.5 19.0711 21.0355 20.5355C19.5711 22 17.214 22 12.5 22C7.78595 22 5.42893 22 3.96447 20.5355C2.5 19.0711 2.5 16.714 2.5 12Z" stroke="#363062" stroke-width="1.5"/>
</svg>
