<svg width="17" height="16" viewBox="0 0 17 16" fill="none" xmlns="http://www.w3.org/2000/svg">
<path d="M6.6021 3.60559C7.44654 2.09076 7.86875 1.33334 8.5 1.33334C9.13124 1.33334 9.55345 2.09076 10.3979 3.60559L10.6164 3.9975C10.8563 4.42797 10.9763 4.6432 11.1634 4.78521C11.3504 4.92723 11.5834 4.97994 12.0494 5.08538L12.4736 5.18136C14.1134 5.55238 14.9333 5.73789 15.1284 6.36516C15.3234 6.99244 14.7645 7.64606 13.6466 8.95329L13.3574 9.29149C13.0397 9.66297 12.8809 9.8487 12.8094 10.0785C12.738 10.3083 12.762 10.5561 12.81 11.0517L12.8537 11.5029C13.0227 13.2471 13.1072 14.1191 12.5966 14.5068C12.0859 14.8945 11.3182 14.541 9.78288 13.8341L9.38567 13.6512C8.94938 13.4504 8.73123 13.3499 8.5 13.3499C8.26876 13.3499 8.05061 13.4504 7.61432 13.6512L7.21711 13.8341C5.68178 14.541 4.91411 14.8945 4.40343 14.5068C3.89274 14.1191 3.97725 13.2471 4.14626 11.5029L4.18998 11.0517C4.23801 10.5561 4.26203 10.3083 4.19057 10.0785C4.11911 9.8487 3.96028 9.66297 3.64261 9.29149L3.35339 8.95329C2.23549 7.64606 1.67654 6.99244 1.87161 6.36516C2.06667 5.73789 2.88657 5.55238 4.52635 5.18136L4.95059 5.08538C5.41656 4.97994 5.64955 4.92723 5.83662 4.78521C6.0237 4.6432 6.14368 4.42797 6.38364 3.9975L6.6021 3.60559Z" fill="#8683A1"/>
</svg>
